<svg width="517" height="114" viewBox="0 0 517 114" fill="none" xmlns="http://www.w3.org/2000/svg">
<path d="M3.46411 70.1083H49.8522L96.2404 43.575L142.629 83.375L189.017 56.8416L235.405 3.77496L281.793 56.8416L328.181 109.908L374.569 30.3083L420.957 43.575L467.345 56.8416L513.734 17.0416" stroke="#1CC1F4"/>
<path d="M3.46406 73.0933C4.87784 73.0933 6.02394 71.7569 6.02394 70.1083C6.02394 68.4597 4.87784 67.1233 3.46406 67.1233C2.05027 67.1233 0.904175 68.4597 0.904175 70.1083C0.904175 71.7569 2.05027 73.0933 3.46406 73.0933Z" fill="white" stroke="#1CC1F4"/>
<path d="M49.8522 73.0933C51.266 73.0933 52.4121 71.7569 52.4121 70.1083C52.4121 68.4597 51.266 67.1233 49.8522 67.1233C48.4385 67.1233 47.2924 68.4597 47.2924 70.1083C47.2924 71.7569 48.4385 73.0933 49.8522 73.0933Z" fill="white" stroke="#1CC1F4"/>
<path d="M96.2403 46.56C97.6541 46.56 98.8002 45.2235 98.8002 43.575C98.8002 41.9264 97.6541 40.59 96.2403 40.59C94.8265 40.59 93.6804 41.9264 93.6804 43.575C93.6804 45.2235 94.8265 46.56 96.2403 46.56Z" fill="white" stroke="#1CC1F4"/>
<path d="M142.628 86.36C144.042 86.36 145.188 85.0235 145.188 83.375C145.188 81.7264 144.042 80.39 142.628 80.39C141.215 80.39 140.069 81.7264 140.069 83.375C140.069 85.0235 141.215 86.36 142.628 86.36Z" fill="white" stroke="#1CC1F4"/>
<path d="M189.017 59.8266C190.43 59.8266 191.576 58.4902 191.576 56.8416C191.576 55.1931 190.43 53.8566 189.017 53.8566C187.603 53.8566 186.457 55.1931 186.457 56.8416C186.457 58.4902 187.603 59.8266 189.017 59.8266Z" fill="white" stroke="#1CC1F4"/>
<path d="M235.405 6.75998C236.819 6.75998 237.965 5.42355 237.965 3.77498C237.965 2.12641 236.819 0.789978 235.405 0.789978C233.991 0.789978 232.845 2.12641 232.845 3.77498C232.845 5.42355 233.991 6.75998 235.405 6.75998Z" fill="white" stroke="#1CC1F4"/>
<path d="M281.793 59.8266C283.207 59.8266 284.353 58.4902 284.353 56.8416C284.353 55.1931 283.207 53.8566 281.793 53.8566C280.379 53.8566 279.233 55.1931 279.233 56.8416C279.233 58.4902 280.379 59.8266 281.793 59.8266Z" fill="white" stroke="#1CC1F4"/>
<path d="M328.181 112.893C329.595 112.893 330.741 111.557 330.741 109.908C330.741 108.26 329.595 106.923 328.181 106.923C326.767 106.923 325.621 108.26 325.621 109.908C325.621 111.557 326.767 112.893 328.181 112.893Z" fill="white" stroke="#1CC1F4"/>
<path d="M374.569 33.2933C375.983 33.2933 377.129 31.9569 377.129 30.3083C377.129 28.6597 375.983 27.3233 374.569 27.3233C373.155 27.3233 372.009 28.6597 372.009 30.3083C372.009 31.9569 373.155 33.2933 374.569 33.2933Z" fill="white" stroke="#1CC1F4"/>
<path d="M420.957 46.56C422.371 46.56 423.517 45.2235 423.517 43.575C423.517 41.9264 422.371 40.59 420.957 40.59C419.543 40.59 418.397 41.9264 418.397 43.575C418.397 45.2235 419.543 46.56 420.957 46.56Z" fill="white" stroke="#1CC1F4"/>
<path d="M467.345 59.8266C468.759 59.8266 469.905 58.4902 469.905 56.8416C469.905 55.1931 468.759 53.8566 467.345 53.8566C465.932 53.8566 464.786 55.1931 464.786 56.8416C464.786 58.4902 465.932 59.8266 467.345 59.8266Z" fill="white" stroke="#1CC1F4"/>
<path d="M513.733 20.0266C515.147 20.0266 516.293 18.6902 516.293 17.0416C516.293 15.3931 515.147 14.0566 513.733 14.0566C512.32 14.0566 511.174 15.3931 511.174 17.0416C511.174 18.6902 512.32 20.0266 513.733 20.0266Z" fill="white" stroke="#1CC1F4"/>
</svg>
