<svg width="517" height="127" viewBox="0 0 517 127" fill="none" xmlns="http://www.w3.org/2000/svg">
<path d="M3.46411 123.175L49.8522 70.1083L96.2404 56.8416L142.629 30.3083L189.017 17.0416L235.405 83.375L281.793 123.175L328.181 83.375L374.569 109.908L420.957 3.77496L467.345 83.375H513.734" stroke="#261103"/>
<path d="M3.46406 126.16C4.87784 126.16 6.02394 124.824 6.02394 123.175C6.02394 121.526 4.87784 120.19 3.46406 120.19C2.05027 120.19 0.904175 121.526 0.904175 123.175C0.904175 124.824 2.05027 126.16 3.46406 126.16Z" fill="white" stroke="#261103"/>
<path d="M49.8522 73.0933C51.266 73.0933 52.4121 71.7569 52.4121 70.1083C52.4121 68.4597 51.266 67.1233 49.8522 67.1233C48.4385 67.1233 47.2924 68.4597 47.2924 70.1083C47.2924 71.7569 48.4385 73.0933 49.8522 73.0933Z" fill="white" stroke="#261103"/>
<path d="M96.2403 59.8266C97.6541 59.8266 98.8002 58.4902 98.8002 56.8416C98.8002 55.1931 97.6541 53.8566 96.2403 53.8566C94.8265 53.8566 93.6804 55.1931 93.6804 56.8416C93.6804 58.4902 94.8265 59.8266 96.2403 59.8266Z" fill="white" stroke="#261103"/>
<path d="M142.628 33.2933C144.042 33.2933 145.188 31.9569 145.188 30.3083C145.188 28.6597 144.042 27.3233 142.628 27.3233C141.215 27.3233 140.069 28.6597 140.069 30.3083C140.069 31.9569 141.215 33.2933 142.628 33.2933Z" fill="white" stroke="#261103"/>
<path d="M189.017 20.0266C190.43 20.0266 191.576 18.6902 191.576 17.0416C191.576 15.3931 190.43 14.0566 189.017 14.0566C187.603 14.0566 186.457 15.3931 186.457 17.0416C186.457 18.6902 187.603 20.0266 189.017 20.0266Z" fill="white" stroke="#261103"/>
<path d="M235.405 86.36C236.819 86.36 237.965 85.0235 237.965 83.375C237.965 81.7264 236.819 80.39 235.405 80.39C233.991 80.39 232.845 81.7264 232.845 83.375C232.845 85.0235 233.991 86.36 235.405 86.36Z" fill="white" stroke="#261103"/>
<path d="M281.793 126.16C283.207 126.16 284.353 124.824 284.353 123.175C284.353 121.526 283.207 120.19 281.793 120.19C280.379 120.19 279.233 121.526 279.233 123.175C279.233 124.824 280.379 126.16 281.793 126.16Z" fill="white" stroke="#261103"/>
<path d="M328.181 86.36C329.595 86.36 330.741 85.0235 330.741 83.375C330.741 81.7264 329.595 80.39 328.181 80.39C326.767 80.39 325.621 81.7264 325.621 83.375C325.621 85.0235 326.767 86.36 328.181 86.36Z" fill="white" stroke="#261103"/>
<path d="M374.569 112.893C375.983 112.893 377.129 111.557 377.129 109.908C377.129 108.26 375.983 106.923 374.569 106.923C373.155 106.923 372.009 108.26 372.009 109.908C372.009 111.557 373.155 112.893 374.569 112.893Z" fill="white" stroke="#261103"/>
<path d="M420.957 6.75998C422.371 6.75998 423.517 5.42355 423.517 3.77498C423.517 2.12641 422.371 0.789978 420.957 0.789978C419.543 0.789978 418.397 2.12641 418.397 3.77498C418.397 5.42355 419.543 6.75998 420.957 6.75998Z" fill="white" stroke="#261103"/>
<path d="M467.345 86.36C468.759 86.36 469.905 85.0235 469.905 83.375C469.905 81.7264 468.759 80.39 467.345 80.39C465.932 80.39 464.786 81.7264 464.786 83.375C464.786 85.0235 465.932 86.36 467.345 86.36Z" fill="white" stroke="#261103"/>
<path d="M513.733 86.36C515.147 86.36 516.293 85.0235 516.293 83.375C516.293 81.7264 515.147 80.39 513.733 80.39C512.32 80.39 511.174 81.7264 511.174 83.375C511.174 85.0235 512.32 86.36 513.733 86.36Z" fill="white" stroke="#261103"/>
</svg>
