<svg width="522" height="107" viewBox="0 0 522 107" fill="none" xmlns="http://www.w3.org/2000/svg">
<path d="M3.66064 66.1399H50.4827L97.3047 41.2931L144.127 78.5633L190.949 53.7165L237.771 4.02295L284.593 53.7165L331.415 103.41L378.237 28.8697L425.059 41.2931L471.881 53.7165L518.703 16.4463" stroke="#1CC1F4"/>
<path d="M3.66061 68.9352C5.08761 68.9352 6.24443 67.6837 6.24443 66.1399C6.24443 64.5961 5.08761 63.3447 3.66061 63.3447C2.2336 63.3447 1.07678 64.5961 1.07678 66.1399C1.07678 67.6837 2.2336 68.9352 3.66061 68.9352Z" fill="white" stroke="#1CC1F4"/>
<path d="M50.4828 68.9352C51.9098 68.9352 53.0666 67.6837 53.0666 66.1399C53.0666 64.5961 51.9098 63.3447 50.4828 63.3447C49.0557 63.3447 47.8989 64.5961 47.8989 66.1399C47.8989 67.6837 49.0557 68.9352 50.4828 68.9352Z" fill="white" stroke="#1CC1F4"/>
<path d="M97.3047 44.0885C98.7317 44.0885 99.8885 42.837 99.8885 41.2932C99.8885 39.7494 98.7317 38.4979 97.3047 38.4979C95.8776 38.4979 94.7208 39.7494 94.7208 41.2932C94.7208 42.837 95.8776 44.0885 97.3047 44.0885Z" fill="white" stroke="#1CC1F4"/>
<path d="M144.127 81.3586C145.554 81.3586 146.711 80.1071 146.711 78.5633C146.711 77.0195 145.554 75.7681 144.127 75.7681C142.7 75.7681 141.543 77.0195 141.543 78.5633C141.543 80.1071 142.7 81.3586 144.127 81.3586Z" fill="white" stroke="#1CC1F4"/>
<path d="M190.949 56.5117C192.376 56.5117 193.533 55.2602 193.533 53.7165C193.533 52.1727 192.376 50.9212 190.949 50.9212C189.522 50.9212 188.365 52.1727 188.365 53.7165C188.365 55.2602 189.522 56.5117 190.949 56.5117Z" fill="white" stroke="#1CC1F4"/>
<path d="M237.771 6.81825C239.198 6.81825 240.355 5.56677 240.355 4.02299C240.355 2.4792 239.198 1.22772 237.771 1.22772C236.344 1.22772 235.187 2.4792 235.187 4.02299C235.187 5.56677 236.344 6.81825 237.771 6.81825Z" fill="white" stroke="#1CC1F4"/>
<path d="M284.593 56.5117C286.02 56.5117 287.177 55.2602 287.177 53.7165C287.177 52.1727 286.02 50.9212 284.593 50.9212C283.166 50.9212 282.009 52.1727 282.009 53.7165C282.009 55.2602 283.166 56.5117 284.593 56.5117Z" fill="white" stroke="#1CC1F4"/>
<path d="M331.415 106.205C332.842 106.205 333.999 104.954 333.999 103.41C333.999 101.866 332.842 100.615 331.415 100.615C329.988 100.615 328.831 101.866 328.831 103.41C328.831 104.954 329.988 106.205 331.415 106.205Z" fill="white" stroke="#1CC1F4"/>
<path d="M378.237 31.6651C379.664 31.6651 380.821 30.4136 380.821 28.8698C380.821 27.3261 379.664 26.0746 378.237 26.0746C376.81 26.0746 375.653 27.3261 375.653 28.8698C375.653 30.4136 376.81 31.6651 378.237 31.6651Z" fill="white" stroke="#1CC1F4"/>
<path d="M425.059 44.0885C426.486 44.0885 427.643 42.837 427.643 41.2932C427.643 39.7494 426.486 38.4979 425.059 38.4979C423.632 38.4979 422.475 39.7494 422.475 41.2932C422.475 42.837 423.632 44.0885 425.059 44.0885Z" fill="white" stroke="#1CC1F4"/>
<path d="M471.881 56.5117C473.308 56.5117 474.465 55.2602 474.465 53.7165C474.465 52.1727 473.308 50.9212 471.881 50.9212C470.454 50.9212 469.297 52.1727 469.297 53.7165C469.297 55.2602 470.454 56.5117 471.881 56.5117Z" fill="white" stroke="#1CC1F4"/>
<path d="M518.703 19.2416C520.13 19.2416 521.287 17.9902 521.287 16.4464C521.287 14.9026 520.13 13.6511 518.703 13.6511C517.276 13.6511 516.119 14.9026 516.119 16.4464C516.119 17.9902 517.276 19.2416 518.703 19.2416Z" fill="white" stroke="#1CC1F4"/>
</svg>
