<svg width="522" height="107" viewBox="0 0 522 107" fill="none" xmlns="http://www.w3.org/2000/svg">
<path d="M3.66064 53.2932H50.4827L97.3047 3.59961L144.127 16.023L190.949 102.987L237.771 90.5634L284.593 78.14L331.415 40.8698L378.237 90.5634L425.059 16.023L471.881 28.4464H518.703" stroke="#2DE577"/>
<path d="M3.66061 56.0885C5.08761 56.0885 6.24443 54.837 6.24443 53.2932C6.24443 51.7495 5.08761 50.498 3.66061 50.498C2.2336 50.498 1.07678 51.7495 1.07678 53.2932C1.07678 54.837 2.2336 56.0885 3.66061 56.0885Z" fill="white" stroke="#2DE577"/>
<path d="M50.4828 56.0885C51.9098 56.0885 53.0666 54.837 53.0666 53.2932C53.0666 51.7495 51.9098 50.498 50.4828 50.498C49.0557 50.498 47.8989 51.7495 47.8989 53.2932C47.8989 54.837 49.0557 56.0885 50.4828 56.0885Z" fill="white" stroke="#2DE577"/>
<path d="M97.3047 6.39485C98.7317 6.39485 99.8885 5.14337 99.8885 3.59959C99.8885 2.0558 98.7317 0.804321 97.3047 0.804321C95.8776 0.804321 94.7208 2.0558 94.7208 3.59959C94.7208 5.14337 95.8776 6.39485 97.3047 6.39485Z" fill="white" stroke="#2DE577"/>
<path d="M144.127 18.8182C145.554 18.8182 146.711 17.5668 146.711 16.023C146.711 14.4792 145.554 13.2277 144.127 13.2277C142.7 13.2277 141.543 14.4792 141.543 16.023C141.543 17.5668 142.7 18.8182 144.127 18.8182Z" fill="white" stroke="#2DE577"/>
<path d="M190.949 105.782C192.376 105.782 193.533 104.53 193.533 102.986C193.533 101.443 192.376 100.191 190.949 100.191C189.522 100.191 188.365 101.443 188.365 102.986C188.365 104.53 189.522 105.782 190.949 105.782Z" fill="white" stroke="#2DE577"/>
<path d="M237.771 93.3586C239.198 93.3586 240.355 92.1071 240.355 90.5633C240.355 89.0195 239.198 87.7681 237.771 87.7681C236.344 87.7681 235.187 89.0195 235.187 90.5633C235.187 92.1071 236.344 93.3586 237.771 93.3586Z" fill="white" stroke="#2DE577"/>
<path d="M284.593 80.9352C286.02 80.9352 287.177 79.6837 287.177 78.1399C287.177 76.5961 286.02 75.3447 284.593 75.3447C283.166 75.3447 282.009 76.5961 282.009 78.1399C282.009 79.6837 283.166 80.9352 284.593 80.9352Z" fill="white" stroke="#2DE577"/>
<path d="M331.415 43.665C332.842 43.665 333.999 42.4135 333.999 40.8697C333.999 39.3259 332.842 38.0745 331.415 38.0745C329.988 38.0745 328.831 39.3259 328.831 40.8697C328.831 42.4135 329.988 43.665 331.415 43.665Z" fill="white" stroke="#2DE577"/>
<path d="M378.237 93.3586C379.664 93.3586 380.821 92.1071 380.821 90.5633C380.821 89.0195 379.664 87.7681 378.237 87.7681C376.81 87.7681 375.653 89.0195 375.653 90.5633C375.653 92.1071 376.81 93.3586 378.237 93.3586Z" fill="white" stroke="#2DE577"/>
<path d="M425.059 18.8182C426.486 18.8182 427.643 17.5668 427.643 16.023C427.643 14.4792 426.486 13.2277 425.059 13.2277C423.632 13.2277 422.475 14.4792 422.475 16.023C422.475 17.5668 423.632 18.8182 425.059 18.8182Z" fill="white" stroke="#2DE577"/>
<path d="M471.881 31.2416C473.308 31.2416 474.465 29.9901 474.465 28.4463C474.465 26.9025 473.308 25.6511 471.881 25.6511C470.454 25.6511 469.297 26.9025 469.297 28.4463C469.297 29.9901 470.454 31.2416 471.881 31.2416Z" fill="white" stroke="#2DE577"/>
<path d="M518.703 31.2416C520.13 31.2416 521.287 29.9901 521.287 28.4463C521.287 26.9025 520.13 25.6511 518.703 25.6511C517.276 25.6511 516.119 26.9025 516.119 28.4463C516.119 29.9901 517.276 31.2416 518.703 31.2416Z" fill="white" stroke="#2DE577"/>
</svg>
