<svg width="522" height="120" viewBox="0 0 522 120" fill="none" xmlns="http://www.w3.org/2000/svg">
<path d="M3.66064 115.833L50.4827 66.1396L97.3047 53.7163L144.127 28.8696L190.949 16.4463L237.771 78.563L284.593 115.833L331.415 78.563L378.237 103.41L425.059 4.02295L471.881 78.563H518.703" stroke="#261103"/>
<path d="M3.66061 118.629C5.08761 118.629 6.24443 117.377 6.24443 115.833C6.24443 114.29 5.08761 113.038 3.66061 113.038C2.2336 113.038 1.07678 114.29 1.07678 115.833C1.07678 117.377 2.2336 118.629 3.66061 118.629Z" fill="white" stroke="#261103"/>
<path d="M50.4828 68.9352C51.9098 68.9352 53.0666 67.6837 53.0666 66.1399C53.0666 64.5961 51.9098 63.3447 50.4828 63.3447C49.0557 63.3447 47.8989 64.5961 47.8989 66.1399C47.8989 67.6837 49.0557 68.9352 50.4828 68.9352Z" fill="white" stroke="#261103"/>
<path d="M97.3047 56.5117C98.7317 56.5117 99.8885 55.2602 99.8885 53.7165C99.8885 52.1727 98.7317 50.9212 97.3047 50.9212C95.8776 50.9212 94.7208 52.1727 94.7208 53.7165C94.7208 55.2602 95.8776 56.5117 97.3047 56.5117Z" fill="white" stroke="#261103"/>
<path d="M144.127 31.6651C145.554 31.6651 146.711 30.4136 146.711 28.8698C146.711 27.3261 145.554 26.0746 144.127 26.0746C142.7 26.0746 141.543 27.3261 141.543 28.8698C141.543 30.4136 142.7 31.6651 144.127 31.6651Z" fill="white" stroke="#261103"/>
<path d="M190.949 19.2416C192.376 19.2416 193.533 17.9902 193.533 16.4464C193.533 14.9026 192.376 13.6511 190.949 13.6511C189.522 13.6511 188.365 14.9026 188.365 16.4464C188.365 17.9902 189.522 19.2416 190.949 19.2416Z" fill="white" stroke="#261103"/>
<path d="M237.771 81.3586C239.198 81.3586 240.355 80.1071 240.355 78.5633C240.355 77.0195 239.198 75.7681 237.771 75.7681C236.344 75.7681 235.187 77.0195 235.187 78.5633C235.187 80.1071 236.344 81.3586 237.771 81.3586Z" fill="white" stroke="#261103"/>
<path d="M284.593 118.629C286.02 118.629 287.177 117.377 287.177 115.833C287.177 114.29 286.02 113.038 284.593 113.038C283.166 113.038 282.009 114.29 282.009 115.833C282.009 117.377 283.166 118.629 284.593 118.629Z" fill="white" stroke="#261103"/>
<path d="M331.415 81.3586C332.842 81.3586 333.999 80.1071 333.999 78.5633C333.999 77.0195 332.842 75.7681 331.415 75.7681C329.988 75.7681 328.831 77.0195 328.831 78.5633C328.831 80.1071 329.988 81.3586 331.415 81.3586Z" fill="white" stroke="#261103"/>
<path d="M378.237 106.205C379.664 106.205 380.821 104.954 380.821 103.41C380.821 101.866 379.664 100.615 378.237 100.615C376.81 100.615 375.653 101.866 375.653 103.41C375.653 104.954 376.81 106.205 378.237 106.205Z" fill="white" stroke="#261103"/>
<path d="M425.059 6.81825C426.486 6.81825 427.643 5.56677 427.643 4.02299C427.643 2.4792 426.486 1.22772 425.059 1.22772C423.632 1.22772 422.475 2.4792 422.475 4.02299C422.475 5.56677 423.632 6.81825 425.059 6.81825Z" fill="white" stroke="#261103"/>
<path d="M471.881 81.3586C473.308 81.3586 474.465 80.1071 474.465 78.5633C474.465 77.0195 473.308 75.7681 471.881 75.7681C470.454 75.7681 469.297 77.0195 469.297 78.5633C469.297 80.1071 470.454 81.3586 471.881 81.3586Z" fill="white" stroke="#261103"/>
<path d="M518.703 81.3586C520.13 81.3586 521.287 80.1071 521.287 78.5633C521.287 77.0195 520.13 75.7681 518.703 75.7681C517.276 75.7681 516.119 77.0195 516.119 78.5633C516.119 80.1071 517.276 81.3586 518.703 81.3586Z" fill="white" stroke="#261103"/>
</svg>
