<svg width="517" height="114" viewBox="0 0 517 114" fill="none" xmlns="http://www.w3.org/2000/svg">
<path d="M3.46411 56.575H49.8522L96.2404 3.5083L142.629 16.775L189.017 109.642L235.405 96.375L281.793 83.1083L328.181 43.3083L374.569 96.375L420.957 16.775L467.345 30.0416H513.734" stroke="#2DE577"/>
<path d="M3.46406 59.56C4.87784 59.56 6.02394 58.2235 6.02394 56.575C6.02394 54.9264 4.87784 53.59 3.46406 53.59C2.05027 53.59 0.904175 54.9264 0.904175 56.575C0.904175 58.2235 2.05027 59.56 3.46406 59.56Z" fill="white" stroke="#2DE577"/>
<path d="M49.8522 59.56C51.266 59.56 52.4121 58.2235 52.4121 56.575C52.4121 54.9264 51.266 53.59 49.8522 53.59C48.4385 53.59 47.2924 54.9264 47.2924 56.575C47.2924 58.2235 48.4385 59.56 49.8522 59.56Z" fill="white" stroke="#2DE577"/>
<path d="M96.2403 6.49332C97.6541 6.49332 98.8002 5.15689 98.8002 3.50832C98.8002 1.85975 97.6541 0.523315 96.2403 0.523315C94.8265 0.523315 93.6804 1.85975 93.6804 3.50832C93.6804 5.15689 94.8265 6.49332 96.2403 6.49332Z" fill="white" stroke="#2DE577"/>
<path d="M142.628 19.76C144.042 19.76 145.188 18.4235 145.188 16.775C145.188 15.1264 144.042 13.79 142.628 13.79C141.215 13.79 140.069 15.1264 140.069 16.775C140.069 18.4235 141.215 19.76 142.628 19.76Z" fill="white" stroke="#2DE577"/>
<path d="M189.017 112.627C190.43 112.627 191.576 111.29 191.576 109.642C191.576 107.993 190.43 106.657 189.017 106.657C187.603 106.657 186.457 107.993 186.457 109.642C186.457 111.29 187.603 112.627 189.017 112.627Z" fill="white" stroke="#2DE577"/>
<path d="M235.405 99.36C236.819 99.36 237.965 98.0236 237.965 96.375C237.965 94.7264 236.819 93.39 235.405 93.39C233.991 93.39 232.845 94.7264 232.845 96.375C232.845 98.0236 233.991 99.36 235.405 99.36Z" fill="white" stroke="#2DE577"/>
<path d="M281.793 86.0933C283.207 86.0933 284.353 84.7569 284.353 83.1083C284.353 81.4597 283.207 80.1233 281.793 80.1233C280.379 80.1233 279.233 81.4597 279.233 83.1083C279.233 84.7569 280.379 86.0933 281.793 86.0933Z" fill="white" stroke="#2DE577"/>
<path d="M328.181 46.2933C329.595 46.2933 330.741 44.9569 330.741 43.3083C330.741 41.6597 329.595 40.3233 328.181 40.3233C326.767 40.3233 325.621 41.6597 325.621 43.3083C325.621 44.9569 326.767 46.2933 328.181 46.2933Z" fill="white" stroke="#2DE577"/>
<path d="M374.569 99.36C375.983 99.36 377.129 98.0236 377.129 96.375C377.129 94.7264 375.983 93.39 374.569 93.39C373.155 93.39 372.009 94.7264 372.009 96.375C372.009 98.0236 373.155 99.36 374.569 99.36Z" fill="white" stroke="#2DE577"/>
<path d="M420.957 19.76C422.371 19.76 423.517 18.4235 423.517 16.775C423.517 15.1264 422.371 13.79 420.957 13.79C419.543 13.79 418.397 15.1264 418.397 16.775C418.397 18.4235 419.543 19.76 420.957 19.76Z" fill="white" stroke="#2DE577"/>
<path d="M467.345 33.0266C468.759 33.0266 469.905 31.6902 469.905 30.0416C469.905 28.3931 468.759 27.0566 467.345 27.0566C465.932 27.0566 464.786 28.3931 464.786 30.0416C464.786 31.6902 465.932 33.0266 467.345 33.0266Z" fill="white" stroke="#2DE577"/>
<path d="M513.733 33.0266C515.147 33.0266 516.293 31.6902 516.293 30.0416C516.293 28.3931 515.147 27.0566 513.733 27.0566C512.32 27.0566 511.174 28.3931 511.174 30.0416C511.174 31.6902 512.32 33.0266 513.733 33.0266Z" fill="white" stroke="#2DE577"/>
</svg>
